<?xml version="1.0" encoding="UTF-8" standalone="no"?>
<svg
   xmlns:dc="http://purl.org/dc/elements/1.1/"
   xmlns:cc="http://creativecommons.org/ns#"
   xmlns:rdf="http://www.w3.org/1999/02/22-rdf-syntax-ns#"
   xmlns:svg="http://www.w3.org/2000/svg"
   xmlns="http://www.w3.org/2000/svg"
   xmlns:sodipodi="http://sodipodi.sourceforge.net/DTD/sodipodi-0.dtd"
   xmlns:inkscape="http://www.inkscape.org/namespaces/inkscape"
   version="1.1"
   id="Capa_1"
   x="0px"
   y="0px"
   viewBox="0 0 512.001 512.001"
   style="enable-background:new 0 0 512.001 512.001;"
   xml:space="preserve"
   sodipodi:docname="bicycle.svg"
   inkscape:version="1.0.1 (3bc2e813f5, 2020-09-07)"><metadata
   id="metadata43"><rdf:RDF><cc:Work
       rdf:about=""><dc:format>image/svg+xml</dc:format><dc:type
         rdf:resource="http://purl.org/dc/dcmitype/StillImage" /></cc:Work></rdf:RDF></metadata><defs
   id="defs41" /><sodipodi:namedview
   pagecolor="#ffffff"
   bordercolor="#666666"
   borderopacity="1"
   objecttolerance="10"
   gridtolerance="10"
   guidetolerance="10"
   inkscape:pageopacity="0"
   inkscape:pageshadow="2"
   inkscape:window-width="721"
   inkscape:window-height="480"
   id="namedview39"
   showgrid="false"
   inkscape:zoom="0.18317131"
   inkscape:cx="-47.301852"
   inkscape:cy="-260.60798"
   inkscape:window-x="72"
   inkscape:window-y="27"
   inkscape:window-maximized="0"
   inkscape:current-layer="Capa_1" />
<g
   id="g6"
   transform="translate(0,-40)">
	<g
   id="g4">
		<path
   d="M 467.001,121.017 H 169.258 L 147.301,60.637 C 138.79,37.237 112.903,25.21 89.622,33.726 66.317,42.21 54.245,68.079 62.713,91.398 l 24.964,68.65 -82.925,165.849 c -12.198,24.44 0.013,54.122 26.021,62.808 l 123.103,41.034 c 9.953,29.757 38.067,51.272 71.13,51.272 39.191,0 71.437,-30.222 74.706,-68.582 L 490.855,294.172 c 13.241,-8.29 21.147,-22.554 21.147,-38.157 v -89.998 c -10e-4,-24.813 -20.187,-45 -45.001,-45 z M 150.567,397.013 40.269,360.248 C 31.555,357.337 27.543,347.412 31.59,339.303 l 70.21,-140.419 14.126,38.845 -42.028,84.057 c -4.083,8.166 0.028,18.057 8.673,20.938 l 77.502,25.831 c -4.962,8.567 -8.273,18.194 -9.506,28.458 z m -20.519,-120.448 20.839,57.307 -42.422,-14.14 z M 90.91,81.152 c -2.825,-7.778 1.202,-16.407 8.998,-19.246 7.739,-2.828 16.373,1.207 19.203,8.983 l 94.886,260.939 c -10.209,1.508 -19.752,5.08 -28.194,10.278 z m 134.096,369.859 c -24.813,0 -44.999,-20.187 -44.999,-44.999 0,-24.812 20.187,-44.999 44.999,-44.999 24.813,0 44.999,20.187 44.999,44.999 0,24.812 -20.186,44.999 -44.999,44.999 z m 27.059,-114.927 c -1.727,-0.671 -3.48,-1.288 -5.266,-1.832 L 201.986,211.015 h 220.017 v 20.012 z m 229.937,-80.069 v 0 c -0.001,5.201 -2.643,9.96 -6.999,12.688 L 295.3,379.883 c -3.56,-9.546 -9.019,-18.167 -15.904,-25.427 L 444.89,252.147 c 4.421,-2.733 7.112,-7.561 7.112,-12.759 v -43.372 c 0,-8.284 -6.716,-15 -15,-15 H 191.077 l -10.909,-29.999 h 286.834 c 8.271,0 15,6.729 15,15 z"
   id="path2" />
	</g>
</g>
<g
   id="g8">
</g>
<g
   id="g10">
</g>
<g
   id="g12">
</g>
<g
   id="g14">
</g>
<g
   id="g16">
</g>
<g
   id="g18">
</g>
<g
   id="g20">
</g>
<g
   id="g22">
</g>
<g
   id="g24">
</g>
<g
   id="g26">
</g>
<g
   id="g28">
</g>
<g
   id="g30">
</g>
<g
   id="g32">
</g>
<g
   id="g34">
</g>
<g
   id="g36">
</g>
</svg>
