<?xml version="1.0" encoding="UTF-8" standalone="no"?>
<svg
   xmlns:dc="http://purl.org/dc/elements/1.1/"
   xmlns:cc="http://creativecommons.org/ns#"
   xmlns:rdf="http://www.w3.org/1999/02/22-rdf-syntax-ns#"
   xmlns:svg="http://www.w3.org/2000/svg"
   xmlns="http://www.w3.org/2000/svg"
   xmlns:sodipodi="http://sodipodi.sourceforge.net/DTD/sodipodi-0.dtd"
   xmlns:inkscape="http://www.inkscape.org/namespaces/inkscape"
   height="512"
   viewBox="0 0 512 512"
   width="512"
   version="1.1"
   id="svg23"
   sodipodi:docname="wholesale.svg"
   inkscape:version="1.0.1 (3bc2e813f5, 2020-09-07)">
  <metadata
     id="metadata29">
    <rdf:RDF>
      <cc:Work
         rdf:about="">
        <dc:format>image/svg+xml</dc:format>
        <dc:type
           rdf:resource="http://purl.org/dc/dcmitype/StillImage" />
      </cc:Work>
    </rdf:RDF>
  </metadata>
  <defs
     id="defs27" />
  <sodipodi:namedview
     pagecolor="#ffffff"
     bordercolor="#666666"
     borderopacity="1"
     objecttolerance="10"
     gridtolerance="10"
     guidetolerance="10"
     inkscape:pageopacity="0"
     inkscape:pageshadow="2"
     inkscape:window-width="721"
     inkscape:window-height="480"
     id="namedview25"
     showgrid="false"
     inkscape:zoom="0.41777991"
     inkscape:cx="159.92543"
     inkscape:cy="163.70799"
     inkscape:window-x="72"
     inkscape:window-y="27"
     inkscape:window-maximized="0"
     inkscape:current-layer="svg23"
     inkscape:document-rotation="0" />
  <g
     id="Outline"
     transform="translate(0,-60)">
    <path
       d="m 488,416 h -8 V 40 a 8,8 0 0 0 -8,-8 H 40 a 8,8 0 0 0 -8,8 v 376 h -8 a 8,8 0 0 0 -8,8 v 32 a 8,8 0 0 0 8,8 h 24 v 24 a 8,8 0 0 0 8,8 h 48 a 8,8 0 0 0 8,-8 v -24 h 112 v 24 a 8,8 0 0 0 8,8 h 48 a 8,8 0 0 0 8,-8 v -24 h 112 v 24 a 8,8 0 0 0 8,8 h 48 a 8,8 0 0 0 8,-8 v -24 h 24 a 8,8 0 0 0 8,-8 v -32 a 8,8 0 0 0 -8,-8 z m -152,0 V 304 h 32 v 40 a 8,8 0 0 0 8,8 h 48 a 8,8 0 0 0 8,-8 v -40 h 32 V 416 Z M 96,304 h 32 v 32 H 96 Z M 48,288 V 176 h 32 v 40 a 8,8 0 0 0 8,8 h 48 a 8,8 0 0 0 8,-8 v -40 h 32 V 288 Z M 96,176 h 32 v 32 H 96 Z m 96,0 h 32 v 40 a 8,8 0 0 0 8,8 h 48 a 8,8 0 0 0 8,-8 v -40 h 32 V 288 H 192 Z M 240,48 h 32 v 32 h -32 z m -8,48 h 48 a 8,8 0 0 0 8,-8 V 48 h 32 V 160 H 192 V 48 h 32 v 40 a 8,8 0 0 0 8,8 z m 8,80 h 32 v 32 h -32 z m 144,0 h 32 v 32 h -32 z m -8,48 h 48 a 8,8 0 0 0 8,-8 v -40 h 32 V 288 H 336 V 176 h 32 v 40 a 8,8 0 0 0 8,8 z m 8,80 h 32 v 32 h -32 z m -144,0 h 32 v 32 h -32 z m -16,0 v 40 a 8,8 0 0 0 8,8 h 48 a 8,8 0 0 0 8,-8 v -40 h 32 V 416 H 192 V 304 Z M 464,160 H 336 V 48 h 32 v 40 a 8,8 0 0 0 8,8 h 48 a 8,8 0 0 0 8,-8 V 48 h 32 z M 384,48 h 32 V 80 H 384 Z M 96,48 h 32 V 80 H 96 Z m -16,0 v 40 a 8,8 0 0 0 8,8 h 48 a 8,8 0 0 0 8,-8 V 48 h 32 V 160 H 48 V 48 Z M 48,304 h 32 v 40 a 8,8 0 0 0 8,8 h 48 a 8,8 0 0 0 8,-8 v -40 h 32 V 416 H 48 Z M 96,480 H 64 v -16 h 32 z m 176,0 h -32 v -16 h 32 z m 176,0 h -32 v -16 h 32 z m 32,-32 H 32 v -16 h 448 z"
       id="path2" />
    <path
       d="m 432,384 h 16 v 16 h -16 z"
       id="path4" />
    <path
       d="m 288,384 h 16 v 16 h -16 z"
       id="path6" />
    <path
       d="m 432,256 h 16 v 16 h -16 z"
       id="path8" />
    <path
       d="m 288,256 h 16 v 16 h -16 z"
       id="path10" />
    <path
       d="m 144,384 h 16 v 16 h -16 z"
       id="path12" />
    <path
       d="m 144,256 h 16 v 16 h -16 z"
       id="path14" />
    <path
       d="m 432,128 h 16 v 16 h -16 z"
       id="path16" />
    <path
       d="m 288,128 h 16 v 16 h -16 z"
       id="path18" />
    <path
       d="m 144,128 h 16 v 16 h -16 z"
       id="path20" />
  </g>
</svg>
