<?xml version="1.0" encoding="UTF-8" standalone="no"?>
<svg
   xmlns:dc="http://purl.org/dc/elements/1.1/"
   xmlns:cc="http://creativecommons.org/ns#"
   xmlns:rdf="http://www.w3.org/1999/02/22-rdf-syntax-ns#"
   xmlns:svg="http://www.w3.org/2000/svg"
   xmlns="http://www.w3.org/2000/svg"
   xmlns:sodipodi="http://sodipodi.sourceforge.net/DTD/sodipodi-0.dtd"
   xmlns:inkscape="http://www.inkscape.org/namespaces/inkscape"
   id="Layer_1"
   enable-background="new 0 0 512 512"
   height="512"
   viewBox="0 0 512 512"
   width="512"
   version="1.1"
   sodipodi:docname="box.svg"
   inkscape:version="1.0.1 (3bc2e813f5, 2020-09-07)">
  <metadata
     id="metadata11">
    <rdf:RDF>
      <cc:Work
         rdf:about="">
        <dc:format>image/svg+xml</dc:format>
        <dc:type
           rdf:resource="http://purl.org/dc/dcmitype/StillImage" />
      </cc:Work>
    </rdf:RDF>
  </metadata>
  <defs
     id="defs9" />
  <sodipodi:namedview
     pagecolor="#ffffff"
     bordercolor="#666666"
     borderopacity="1"
     objecttolerance="10"
     gridtolerance="10"
     guidetolerance="10"
     inkscape:pageopacity="0"
     inkscape:pageshadow="2"
     inkscape:window-width="794"
     inkscape:window-height="480"
     id="namedview7"
     showgrid="false"
     inkscape:zoom="0.18785234"
     inkscape:cx="-3.6016217"
     inkscape:cy="128.41319"
     inkscape:window-x="72"
     inkscape:window-y="27"
     inkscape:window-maximized="0"
     inkscape:current-layer="Layer_1" />
  <g
     id="g4"
     transform="translate(0,-60)">
    <path
       d="m 511.9,126.269 c -0.598,-5.507 -4.02,-10.381 -9.135,-12.768 l -240,-112 c -4.289,-2.001 -9.243,-2.001 -13.532,0 l -240,112 c -5.114,2.387 -8.536,7.26 -9.135,12.768 C 0.085,126.384 0,127.916 0,128 v 272 c 0,6.542 3.983,12.426 10.058,14.855 l 240,96 c 1.907,0.763 3.925,1.145 5.942,1.145 2.017,0 4.035,-0.381 5.942,-1.145 l 240,-96 C 508.017,412.426 512,406.542 512,400 V 128 c 0,-0.084 -0.087,-1.617 -0.1,-1.731 z M 256,33.656 455.744,126.87 378.83,157.636 175.327,71.304 Z M 136.31,89.512 336.656,174.505 256,206.767 56.256,126.87 Z M 32,151.632 l 208,83.2 V 472.367 L 32,389.167 Z M 272,472.368 V 234.832 l 208,-83.2 v 237.535 z"
       id="path2" />
  </g>
</svg>
