<svg xmlns="http://www.w3.org/2000/svg" viewBox="0 0 370.66 111.45"><defs><style>.cls-1{fill:#0094ff;}.cls-2{fill:#fff;}</style></defs><g id="Layer_2" data-name="Layer 2"><g id="Layer_1-2" data-name="Layer 1"><rect class="cls-1" width="111.45" height="111.45" rx="24.83"/><path class="cls-2" d="M160.39,28.58c19.16,0,31.5,12.34,31.5,30.2S179.55,89,160.39,89s-31.51-12.34-31.51-30.21S141.22,28.58,160.39,28.58Zm0,49.37C170.94,78,177,70.15,177,58.78s-6-19.16-16.56-19.16-16.57,7.8-16.57,19.16S149.83,78,160.39,78Z"/><path class="cls-2" d="M216.32,44.17c7.15,0,10.8,3,12.75,5.2h.81l2.6-4.39h9.9V85.74c0,12.5-8.77,19.32-22.73,19.32-13.64,0-21.35-6.82-23.06-15.34V88.5h13.32c.65,3.73,3.41,6.82,9.25,6.82s8.93-3.09,8.93-8.12V82.49h-.81c-2.27,2-5.6,3.57-11,3.57-10.07,0-19.89-6.82-19.89-20.94S206.25,44.17,216.32,44.17Zm3.57,31.66c5.2,0,9-3.57,9-10.71s-3.82-10.72-9-10.72-9,3.57-9,10.72S214.7,75.83,219.89,75.83Z"/><path class="cls-2" d="M264.47,45v4.39h.81c1.54-2.2,4.71-5.2,11.85-5.2,8.28,0,11.94,4.3,13.4,6.25h.81c2-2.35,5.76-6.25,13.88-6.25,9.42,0,16.08,5.84,16.08,14.94V88H307V60.25c0-3.5-2.44-5.53-6-5.53-4.22,0-7.79,2-7.79,8.45V88H278.92V60.25c0-3.5-2.44-5.53-6-5.53-4.22,0-7.8,2-7.8,8.45V88H250.82V45Z"/><path class="cls-2" d="M328.6,58.54C329.82,49.93,338.1,44,350,44s20.7,5.92,20.7,17.7V88H357V83.47h-.81c-1.46,1.7-4.79,5.19-12.59,5.19-9.66,0-16.15-4.79-16.15-12.83s7-11.93,15.42-12.9l13.64-1.55V60.25c0-4.39-2.11-6.66-6.82-6.66s-7.14,2.27-7.47,6.17H328.6Zm18.68,20.38c5.52,0,9.25-3.57,9.25-8.93V69.5l-10.47,1.22c-2.44.24-4.3,1.62-4.3,4S343.62,78.92,347.28,78.92Z"/><path class="cls-2" d="M133.89,8.2V20.65h6.86v2.79H130V8.2Z"/><path class="cls-2" d="M146.15,8.2v2.92H142V8.2Zm-.24,4V23.44h-3.72V12.22Z"/><path class="cls-2" d="M151.67,12.22v1.27h.21A3.69,3.69,0,0,1,155.23,12c2.54,0,4.23,1.46,4.23,4.13v7.3h-3.72v-7a1.57,1.57,0,0,0-1.7-1.76c-1.18,0-2.2.62-2.2,2.43v6.29h-3.72V12.22Z"/><path class="cls-2" d="M174.26,23.12v.32h-4l-3.39-4.59-1.52,1.31v3.28h-3.73V8.2h3.73v7.71h.21l4-3.69h4.63v.32l-4.84,4.17Z"/><path class="cls-2" d="M183.07,23.44V22.17h-.22a3.63,3.63,0,0,1-3.34,1.48c-2.54,0-4.23-1.46-4.23-4.12V12.22H179v7a1.56,1.56,0,0,0,1.7,1.75c1.18,0,2.2-.61,2.2-2.43V12.22h3.72V23.44Z"/><path class="cls-2" d="M192.38,12.22v1.34h.21a2.39,2.39,0,0,1,2.48-1.38h1.23V15H195c-1.56,0-2.43.75-2.43,2.59v5.88h-3.72V12.22Z"/><path class="cls-2" d="M201.7,8.2v2.92h-4.19V8.2Zm-.24,4V23.44h-3.72V12.22Z"/><path class="cls-2" d="M209.38,12c3.39,0,6.22,1.93,6.22,5.86s-2.83,5.86-6.22,5.86-6.22-1.92-6.22-5.86S206,12,209.38,12Zm0,9.06c1.48,0,2.46-1.17,2.46-3.2s-1-3.19-2.46-3.19-2.45,1.16-2.45,3.19S207.9,21,209.38,21Z"/><path class="cls-2" d="M225,23.44V22.17h-.21a3.65,3.65,0,0,1-3.34,1.48c-2.54,0-4.23-1.46-4.23-4.12V12.22h3.72v7a1.56,1.56,0,0,0,1.69,1.75c1.19,0,2.21-.61,2.21-2.43V12.22h3.72V23.44Z"/><path class="cls-2" d="M235.61,12c3.39,0,5.14,1.5,5.48,3.45v.32h-3.43c-.1-.93-.91-1.31-2-1.31s-1.71.38-1.71.91.44.72,1.08.84l2.29.45c2.3.44,3.87,1.31,3.87,3.34s-1.67,3.68-5.31,3.68S230.45,22,230.13,20v-.32h3.43c.13,1.13,1.1,1.55,2.24,1.55s1.82-.44,1.82-1-.4-.78-1.23-.93l-2.28-.42c-2.2-.4-3.73-1.33-3.73-3.37S232.23,12,235.61,12Z"/><path d="M98,55.37A42.18,42.18,0,1,1,55.79,13.2,42.17,42.17,0,0,1,98,55.37ZM38.71,27.62C28.35,38,30,56.42,42.36,68.8s30.82,14,41.18,3.65,8.74-28.81-3.64-41.19S49.08,17.25,38.71,27.62Zm-11,11C17.36,49,19,67.41,31.37,79.79s30.82,14,41.18,3.65,8.74-28.81-3.64-41.19S38.09,28.24,27.72,38.61Z"/><circle class="cls-1" cx="55.79" cy="55.37" r="14.39"/></g></g></svg>