<?xml version="1.0" encoding="UTF-8" standalone="no"?>
<svg
   xmlns:dc="http://purl.org/dc/elements/1.1/"
   xmlns:cc="http://creativecommons.org/ns#"
   xmlns:rdf="http://www.w3.org/1999/02/22-rdf-syntax-ns#"
   xmlns:svg="http://www.w3.org/2000/svg"
   xmlns="http://www.w3.org/2000/svg"
   xmlns:sodipodi="http://sodipodi.sourceforge.net/DTD/sodipodi-0.dtd"
   xmlns:inkscape="http://www.inkscape.org/namespaces/inkscape"
   version="1.1"
   id="Capa_1"
   x="0px"
   y="0px"
   viewBox="0 0 512 512"
   style="enable-background:new 0 0 512 512;"
   xml:space="preserve"
   sodipodi:docname="coal.svg"
   inkscape:version="1.0.1 (3bc2e813f5, 2020-09-07)"><metadata
   id="metadata556"><rdf:RDF><cc:Work
       rdf:about=""><dc:format>image/svg+xml</dc:format><dc:type
         rdf:resource="http://purl.org/dc/dcmitype/StillImage" /></cc:Work></rdf:RDF></metadata><defs
   id="defs554" /><sodipodi:namedview
   pagecolor="#ffffff"
   bordercolor="#666666"
   borderopacity="1"
   objecttolerance="10"
   gridtolerance="10"
   guidetolerance="10"
   inkscape:pageopacity="0"
   inkscape:pageshadow="2"
   inkscape:window-width="825"
   inkscape:window-height="480"
   id="namedview552"
   showgrid="false"
   inkscape:zoom="0.33736283"
   inkscape:cx="-28.089216"
   inkscape:cy="143.06642"
   inkscape:window-x="72"
   inkscape:window-y="27"
   inkscape:window-maximized="0"
   inkscape:current-layer="Capa_1" />
<g
   id="g495">
	<g
   id="g493">
		<path
   d="M362,407.723c-5.52,0-10,4.48-10,10c0,5.52,4.48,10,10,10c5.52,0,10-4.48,10-10C372,412.203,367.52,407.723,362,407.723z"
   id="path491" />
	</g>
</g>
<g
   id="g501">
	<g
   id="g499">
		<path
   d="M150,407.723c-5.52,0-10,4.48-10,10c0,5.52,4.48,10,10,10s10-4.48,10-10C160,412.203,155.52,407.723,150,407.723z"
   id="path497" />
	</g>
</g>
<g
   id="g507">
	<g
   id="g505">
		<path
   d="M110,267.723c-5.52,0-10,4.48-10,10c0,5.52,4.48,10,10,10s10-4.48,10-10C120,272.203,115.52,267.723,110,267.723z"
   id="path503" />
	</g>
</g>
<g
   id="g513">
	<g
   id="g511">
		<path
   d="M410,267.723H150c-5.522,0-10,4.478-10,10c0,5.522,4.478,10,10,10h260c5.522,0,10-4.478,10-10    C420,272.201,415.522,267.723,410,267.723z"
   id="path509" />
	</g>
</g>
<g
   id="g519"
   transform="translate(0,-40)">
	<g
   id="g517">
		<path
   d="M 502,167.723 H 460.143 L 351.352,58.932 c -19.494,-19.492 -51.209,-19.492 -70.703,0 L 256,83.58 231.352,58.932 c -19.538,-19.538 -51.161,-19.542 -70.703,0 L 51.857,167.723 H 10 c -5.522,0 -10,4.478 -10,10 v 40 c 0,13.669 9.193,25.224 21.718,28.828 l 35.039,157.678 c 3.069,13.833 15.111,23.494 29.283,23.494 h 14.966 c 4.646,22.795 24.847,40 48.994,40 24.147,0 44.348,-17.205 48.994,-40 h 114.012 c 4.646,22.795 24.847,40 48.994,40 24.147,0 44.348,-17.205 48.994,-40 h 14.966 c 14.172,0 26.214,-9.661 29.282,-23.491 l 35.04,-157.681 C 502.807,242.947 512,231.392 512,217.723 v -40 c 0,-5.523 -4.478,-10 -10,-10 z M 294.791,73.074 c 11.695,-11.695 30.723,-11.695 42.418,0 l 94.648,94.648 h -91.715 l -70,-70 z m -120,0 c 11.695,-11.695 30.723,-11.695 42.418,0 l 94.648,94.648 H 80.143 Z M 150,447.723 c -16.542,0 -30,-13.458 -30,-30 0,-16.542 13.458,-30 30,-30 16.542,0 30,13.458 30,30 0,16.542 -13.458,30 -30,30 z m 212,0 c -16.542,0 -30,-13.458 -30,-30 0,-16.542 13.458,-30 30,-30 16.542,0 30,13.458 30,30 0,16.542 -13.458,30 -30,30 z m 73.718,-47.826 c -1.006,4.535 -5.11,7.826 -9.758,7.826 h -14.966 c -4.646,-22.795 -24.847,-40 -48.994,-40 -24.147,0 -44.348,17.205 -48.994,40 H 198.994 c -4.646,-22.795 -24.847,-40 -48.994,-40 -24.147,0 -44.348,17.205 -48.994,40 H 86.04 c -4.647,0 -8.752,-3.291 -9.759,-7.829 L 42.466,247.723 H 469.534 Z M 492,217.723 c 0,5.514 -4.486,10 -10,10 H 30 c -5.514,0 -10,-4.486 -10,-10 v -30 h 472 z"
   id="path515" />
	</g>
</g>
<g
   id="g521">
</g>
<g
   id="g523">
</g>
<g
   id="g525">
</g>
<g
   id="g527">
</g>
<g
   id="g529">
</g>
<g
   id="g531">
</g>
<g
   id="g533">
</g>
<g
   id="g535">
</g>
<g
   id="g537">
</g>
<g
   id="g539">
</g>
<g
   id="g541">
</g>
<g
   id="g543">
</g>
<g
   id="g545">
</g>
<g
   id="g547">
</g>
<g
   id="g549">
</g>
</svg>
