<?xml version="1.0" encoding="UTF-8" standalone="no"?>
<svg
   xmlns:dc="http://purl.org/dc/elements/1.1/"
   xmlns:cc="http://creativecommons.org/ns#"
   xmlns:rdf="http://www.w3.org/1999/02/22-rdf-syntax-ns#"
   xmlns:svg="http://www.w3.org/2000/svg"
   xmlns="http://www.w3.org/2000/svg"
   xmlns:sodipodi="http://sodipodi.sourceforge.net/DTD/sodipodi-0.dtd"
   xmlns:inkscape="http://www.inkscape.org/namespaces/inkscape"
   viewBox="0 0 64 64"
   width="512"
   height="512"
   version="1.1"
   id="svg5"
   sodipodi:docname="frame.svg"
   inkscape:version="1.0.1 (3bc2e813f5, 2020-09-07)">
  <metadata
     id="metadata11">
    <rdf:RDF>
      <cc:Work
         rdf:about="">
        <dc:format>image/svg+xml</dc:format>
        <dc:type
           rdf:resource="http://purl.org/dc/dcmitype/StillImage" />
      </cc:Work>
    </rdf:RDF>
  </metadata>
  <defs
     id="defs9" />
  <sodipodi:namedview
     pagecolor="#ffffff"
     bordercolor="#666666"
     borderopacity="1"
     objecttolerance="10"
     gridtolerance="10"
     guidetolerance="10"
     inkscape:pageopacity="0"
     inkscape:pageshadow="2"
     inkscape:window-width="721"
     inkscape:window-height="480"
     id="namedview7"
     showgrid="false"
     inkscape:zoom="0.26061961"
     inkscape:cx="-18.632688"
     inkscape:cy="112.89172"
     inkscape:window-x="72"
     inkscape:window-y="27"
     inkscape:window-maximized="0"
     inkscape:current-layer="svg5" />
  <g
     id="outline"
     transform="translate(0,-7.5)">
    <path
       d="M 61.971,52.758 56.908,32.446 V 32.437 32.429 L 52.966,17.741 v 0 l -2,-7.984 A 1,1 0 0 0 49.777,9.024 L 45.7,9.941 a 1,1 0 0 0 -0.758,1.189 l 1.666,7.617 0.05,0.253 H 21.781 L 20.97,15.757 A 1,1 0 0 0 19.758,15.03 l -4,1 a 1,1 0 0 0 -0.711,1.273 L 18.605,28.512 2.245,47.344 A 1,1 0 0 0 2,48 v 1 a 1,1 0 0 0 0.553,0.9 l 1.211,0.6 -1.211,0.6 A 1,1 0 0 0 2,52 v 2 a 1,1 0 0 0 1,1 h 25.448 a 4.988,4.988 0 0 0 3.37,-1.306 L 51.5,35.808 57.044,54.287 a 1,1 0 0 0 1.274,0.662 l 3,-1 a 1,1 0 0 0 0.653,-1.191 z m -12.7,-41.569 1.489,5.958 -2.388,0.3 -1.262,-5.77 z M 4,52.618 5.447,51.9 A 1,1 0 0 0 6,51 V 50 A 1,1 0 0 0 5.447,49.1 L 4,48.382 20.483,29.4 a 1,1 0 0 0 0.2,-0.959 l -3.408,-10.729 2,-0.5 0.758,3.03 A 1,1 0 0 0 21,21 h 26.875 a 1,1 0 0 0 0.98,-1.2 l -0.078,-0.4 2.483,-0.3 3.468,12.937 -3.044,1.014 a 0.978,0.978 0 0 0 -0.347,0.2 l -0.01,0.006 -19.343,17.584 A 3.981,3.981 0 0 0 30.808,48.157 L 50.282,28.925 a 1,1 0 0 0 0.259,-0.986 l -1.2,-4.214 A 1,1 0 0 0 48.375,23 H 22.6 a 1,1 0 0 0 -0.966,1.258 L 27.71,47.029 A 3.976,3.976 0 0 0 25.9,47.61 L 21.944,33.172 A 1,1 0 0 0 20.22,32.786 L 7.756,47.35 a 1,1 0 0 0 -0.212,0.885 l 0.484,2 A 1,1 0 0 0 9,51 h 15 a 3.959,3.959 0 0 0 0.556,2 H 4 Z M 26,51 a 2,2 0 1 1 2,2 2,2 0 0 1 -2,-2 z M 23.905,25 H 47.621 L 48.455,27.919 29.639,46.5 Z m 0.3,24 H 9.787 L 9.607,48.262 20.514,35.519 Z m 34.455,3.726 -5.424,-18.084 1.993,-0.664 4.577,18.366 z"
       id="path2" />
  </g>
</svg>
