<?xml version="1.0" encoding="UTF-8" standalone="no"?>
<svg
   xmlns:dc="http://purl.org/dc/elements/1.1/"
   xmlns:cc="http://creativecommons.org/ns#"
   xmlns:rdf="http://www.w3.org/1999/02/22-rdf-syntax-ns#"
   xmlns:svg="http://www.w3.org/2000/svg"
   xmlns="http://www.w3.org/2000/svg"
   xmlns:sodipodi="http://sodipodi.sourceforge.net/DTD/sodipodi-0.dtd"
   xmlns:inkscape="http://www.inkscape.org/namespaces/inkscape"
   height="511pt"
   viewBox="0 -33 511.99999 511"
   width="511pt"
   version="1.1"
   id="svg4"
   sodipodi:docname="shopping-cart.svg"
   inkscape:version="1.0.1 (3bc2e813f5, 2020-09-07)">
  <metadata
     id="metadata10">
    <rdf:RDF>
      <cc:Work
         rdf:about="">
        <dc:format>image/svg+xml</dc:format>
        <dc:type
           rdf:resource="http://purl.org/dc/dcmitype/StillImage" />
      </cc:Work>
    </rdf:RDF>
  </metadata>
  <defs
     id="defs8" />
  <sodipodi:namedview
     pagecolor="#ffffff"
     bordercolor="#666666"
     borderopacity="1"
     objecttolerance="10"
     gridtolerance="10"
     guidetolerance="10"
     inkscape:pageopacity="0"
     inkscape:pageshadow="2"
     inkscape:window-width="721"
     inkscape:window-height="480"
     id="namedview6"
     showgrid="false"
     inkscape:zoom="0.26579812"
     inkscape:cx="124.78217"
     inkscape:cy="157.42898"
     inkscape:window-x="72"
     inkscape:window-y="27"
     inkscape:window-maximized="0"
     inkscape:current-layer="svg4"
     inkscape:document-rotation="0" />
  <path
     d="m 431.77724,294.54275 h 30.78515 c 10.6875,0 19.37891,-8.6914 19.37891,-19.3789 0,-10.6836 -8.69141,-19.375 -19.37891,-19.375 H 299.59755 c -4.14063,0 -7.5,3.35937 -7.5,7.5 0,4.14062 3.35937,7.5 7.5,7.5 h 162.96484 c 2.41407,0 4.37891,1.96093 4.37891,4.375 0,2.41406 -1.96484,4.3789 -4.37891,4.3789 H 196.34364 c -8.14062,0 -15.55859,-4.47656 -19.35547,-11.68359 -3.79296,-7.20313 -3.29296,-15.84766 1.30469,-22.5625 l 10.875,-15.87891 11.5586,-1.3789 -15.21485,22.20703 c -2.80078,4.09375 -3.08984,9.15234 -0.78125,13.53515 2.31641,4.38672 6.66016,7.00782 11.61328,7.00782 h 73.25391 c 4.14453,0 7.5,-3.35938 7.5,-7.5 0,-4.14063 -3.35547,-7.5 -7.5,-7.5 h -69.69922 l 17.46094,-25.48047 c 0.97265,-1.41797 1.73437,-2.94141 2.29297,-4.52735 l 169.91406,-20.28906 32.28906,-3.84766 c 24.32813,-2.91406 42.67188,-23.58203 42.67188,-48.07421 v -27.625 c 0,-4.14063 -3.35938,-7.5 -7.5,-7.5 -4.14063,0 -7.5,3.35937 -7.5,7.5 v 3.6289 l -91.19922,6.03125 -3.75781,-44.183594 94.95703,-0.57031 v 4.97656 c 0,4.14062 3.35937,7.500004 7.5,7.500004 4.14062,0 7.5,-3.359384 7.5,-7.500004 V 83.351342 c 0,-0.0312 0.004,-0.0586 0.004,-0.0899 0,-0.0234 -0.004,-0.0469 -0.004,-0.0703 V 42.066138 c 0,-10.75 -8.40625,-19.613282 -19.13672,-20.179688 l -218.3125,-11.5625 c -0.0899,-0.0039 -0.17969,-0.01172 -0.26953,-0.01172 L 118.2538,4.5622296 l -1.6875,-7.59375 C 113.86708,-15.195542 104.20302,-24.508042 91.949106,-26.754136 l -24.152345,-4.425781 1.117187,-6.335938 c 0.410156,-2.335937 -0.109375,-4.691406 -1.46875,-6.628906 -1.359375,-1.941406 -3.394531,-3.234375 -5.726562,-3.648437 L -3.3477704,-59.265854 c -5.9843764,-1.054687 -12.0234386,0.28125 -17.0039076,3.769532 -4.980468,3.48828 -8.304686,8.703124 -9.359374,14.691405 -2.179687,12.359375 6.101562,24.183594 18.460937,26.363281 l 65.066407,11.4726576 c 0.519531,0.08984 1.035156,0.136718 1.542969,0.136718 4.21875,0 7.96875,-3.0312504 8.730469,-7.3281256 l 1.101562,-6.25 24.054694,4.40625 c 6.3125,1.15625 11.289064,5.9531252 12.679684,12.21875064 L 143.6913,188.46463 c 0,0.004 0.004,0.0117 0.004,0.0156 l 6.42187,28.94531 c 1.89063,8.51954 9.36719,14.38672 17.88281,14.38672 0.46094,0 0.92188,-0.0234 1.38672,-0.0586 l -3.46875,5.06641 c -7.7539,11.32031 -8.59765,25.89453 -2.19922,38.03125 6.40235,12.14453 18.90235,19.6875 32.625,19.6875 h 8.42578 v 3.91796 c -20.77734,3.57422 -36.64062,21.71094 -36.64062,43.49219 0,24.33985 19.80078,44.14063 44.14062,44.14063 24.33594,0 44.14063,-19.80078 44.14063,-44.14063 0,-10.875 -3.99219,-21.32422 -11.23828,-29.42187 -2.76172,-3.08594 -7.5,-3.35157 -10.58985,-0.58985 -3.08593,2.76172 -3.35156,7.50391 -0.58593,10.58985 4.78125,5.34375 7.41406,12.24218 7.41406,19.42187 0,16.07031 -13.07422,29.14063 -29.14063,29.14063 -16.0664,0 -29.14062,-13.07032 -29.14062,-29.14063 0,-13.47656 9.19531,-24.83984 21.64062,-28.15625 v 8.44531 c -7.94531,3.03125 -13.61328,10.71485 -13.61328,19.71094 0,11.64453 9.46875,21.11719 21.11328,21.11719 11.64454,0 21.11329,-9.47266 21.11329,-21.11719 0,-8.99609 -5.66797,-16.67578 -13.61329,-19.71094 v -27.69528 h 197.00782 v 3.91797 c -20.77735,3.57031 -36.64063,21.70703 -36.64063,43.48828 0,24.33985 19.80078,44.14453 44.14063,44.14453 24.33984,0 44.14062,-19.80468 44.14062,-44.14453 0,-10.875 -3.98828,-21.32422 -11.23437,-29.42187 -2.76172,-3.08594 -7.50391,-3.34766 -10.58985,-0.58594 -3.08593,2.76172 -3.35156,7.5 -0.58984,10.58984 4.78125,5.34375 7.41797,12.23828 7.41797,19.41797 0,16.07031 -13.07422,29.14453 -29.14063,29.14453 -16.07031,0 -29.14453,-13.07422 -29.14453,-29.14453 0,-13.47265 9.19922,-24.83984 21.64453,-28.15625 v 8.44531 c -7.94922,3.03125 -13.61718,10.71485 -13.61718,19.71094 0,11.64453 9.47265,21.11719 21.11718,21.11719 11.64063,0 21.11329,-9.47266 21.11329,-21.11719 0,-8.99609 -5.66797,-16.67578 -13.61329,-19.71094 V 294.54275 Z M -8.6446468,-29.215073 c -4.2148432,-0.742188 -7.0351562,-4.773438 -6.2929682,-8.984375 0.359375,-2.042969 1.492187,-3.820313 3.1875,-5.011719 1.320312,-0.921875 2.8554682,-1.402344 4.4335942,-1.402344 0.453124,0 0.910156,0.03906 1.363281,0.121094 l 59.0273438,10.40625 -2.695312,15.28125 z M 263.67567,205.41775 l -7.55468,-48.02734 88.50781,-5.85156 3.72266,43.76953 z m 185.85157,-60.80859 v 8.95703 c 0,16.90625 -12.66407,31.17187 -29.44922,33.17969 l -56.82422,6.78515 -3.65625,-42.98047 z m -106.17188,-8.01563 -89.57422,5.91797 -7.9375,-50.441404 93.67969,-0.5586 z m -205.54297,-43.875004 92.86328,-0.55859 8.07813,51.347664 -88.37891,5.83984 z m 196.56641,-61.691411 3.87109,45.488287 -94.76172,0.5664 -8.07031,-51.296874 z m 115.14844,11.035157 v 33.78907 l -96.23047,0.57421 -3.79297,-44.597656 95.09375,5.035157 c 2.76562,0.148437 4.92969,2.429687 4.92969,5.199219 z m -229.42188,-17.085938 8.21485,52.199218 -93.83204,0.5625 L 121.6288,19.76149 Z m -55.34765,189.199226 -11.09375,-50.01171 87.42968,-5.78125 7.67969,48.8125 -36.34766,4.33984 c -0.0234,0.004 -0.0469,0.004 -0.0664,0.004 l -28.34766,3.38671 c -0.0156,0 -0.0312,0.004 -0.0469,0.008 l -15.52341,1.85129 c -1.72266,0.20312 -3.30469,-0.91406 -3.68359,-2.60938 z m 47.50781,133.89063 c -3.3711,0 -6.11328,-2.74609 -6.11328,-6.11719 0,-3.37109 2.74218,-6.11328 6.11328,-6.11328 3.375,0 6.11719,2.74219 6.11719,6.11328 0,3.3711 -2.7461,6.11719 -6.11719,6.11719 z m 212.01172,0 c -3.3711,0 -6.11719,-2.74609 -6.11719,-6.11719 0,-3.37109 2.74609,-6.11328 6.11719,-6.11328 3.37109,0 6.11328,2.74219 6.11328,6.11328 0,3.3711 -2.74219,6.11719 -6.11328,6.11719 z m 0,0"
     id="path2" />
</svg>
